<?xml version="1.0" standalone="no"?>
<!DOCTYPE svg PUBLIC "-//W3C//DTD SVG 20010904//EN"
 "http://www.w3.org/TR/2001/REC-SVG-20010904/DTD/svg10.dtd">
<svg version="1.0" xmlns="http://www.w3.org/2000/svg"
 width="700.000000pt" height="700.000000pt" viewBox="0 0 700.000000 700.000000"
 preserveAspectRatio="xMidYMid meet">
<metadata>
Created by potrace 1.14, written by Peter Selinger 2001-2017
</metadata>
<g transform="translate(0.000000,700.000000) scale(0.100000,-0.100000)"
fill="#000000" stroke="none">
<path d="M342 6470 c-32 -13 -59 -41 -71 -73 -14 -36 -14 -317 -1 -353 15 -38
551 -571 591 -588 52 -20 5252 -18 5289 3 39 22 555 542 574 578 13 25 16 63
16 182 0 82 -4 160 -9 173 -13 34 -44 66 -75 78 -35 13 -6280 13 -6314 0z
m6138 -288 c0 -35 -11 -48 -222 -259 l-223 -221 -2535 0 -2535 0 -222 221
c-212 211 -223 224 -223 259 l0 38 2980 0 2980 0 0 -38z"/>
<path d="M867 5183 c-1 0 -26 -4 -54 -8 -149 -18 -325 -95 -454 -197 -136
-107 -233 -239 -304 -413 -36 -90 -54 -203 -50 -334 6 -241 96 -438 274 -603
311 -288 772 -290 1064 -5 148 145 220 312 216 506 -2 117 -18 182 -72 290
-178 358 -635 449 -908 181 -103 -101 -147 -203 -147 -340 0 -146 51 -254 160
-341 90 -71 228 -100 326 -70 202 61 289 296 165 440 -53 62 -153 85 -227 52
-77 -33 -118 -140 -82 -210 16 -31 16 -32 -1 -23 -51 28 -83 85 -83 149 1 138
127 244 283 238 119 -6 230 -84 289 -203 31 -63 33 -73 33 -172 0 -99 -2 -109
-34 -175 -120 -247 -423 -345 -674 -219 -310 157 -419 554 -235 861 46 78 161
190 244 239 75 44 161 77 239 91 29 5 1165 9 2680 8 2521 -1 2633 -2 2700 -19
234 -62 422 -236 496 -461 19 -55 24 -93 24 -175 0 -130 -6 -162 -50 -256 -36
-78 -76 -135 -132 -188 -54 -50 -59 -54 -125 -90 -202 -111 -433 -80 -594 79
-100 99 -151 241 -132 369 15 108 109 238 202 280 120 55 249 37 336 -46 98
-96 91 -253 -13 -310 -17 -9 -17 -8 -3 21 22 42 20 89 -6 141 -38 75 -121 103
-216 75 -51 -16 -75 -35 -111 -90 -23 -35 -26 -50 -26 -125 0 -75 3 -91 27
-132 104 -176 345 -214 516 -79 57 46 90 87 128 166 25 52 29 72 30 160 2 103
-19 199 -52 236 -8 8 -14 21 -14 28 0 6 -33 45 -72 84 -114 114 -225 159 -388
161 -75 0 -111 -5 -169 -24 -184 -59 -345 -224 -401 -410 -26 -87 -30 -113
-31 -195 -2 -331 248 -628 589 -700 86 -18 267 -13 347 9 187 53 365 180 474
339 46 68 105 199 126 282 35 136 27 344 -19 479 -114 336 -413 586 -766 642
-36 6 -5317 13 -5323 7z"/>
<path d="M1904 4398 c-41 -10 -71 -45 -81 -93 -5 -22 -9 -862 -8 -1867 l0
-1827 21 -28 c32 -44 83 -67 127 -59 25 5 162 89 410 254 204 136 380 254 390
262 50 41 48 15 62 875 4 204 8 460 10 570 2 110 6 382 10 605 3 223 8 413 11
423 8 25 53 45 110 50 51 4 123 -15 136 -36 4 -7 8 -484 8 -1062 1 -786 4
-1059 13 -1085 18 -51 70 -83 127 -78 40 4 97 39 455 279 330 220 413 281 427
308 15 31 17 103 17 829 1 724 2 797 17 813 40 45 197 41 227 -4 12 -18 14
-132 14 -688 0 -666 0 -666 21 -702 22 -35 52 -52 105 -61 21 -4 97 30 320
142 278 140 293 149 312 187 20 39 20 57 20 975 l0 935 -24 33 c-13 19 -35 39
-50 45 -31 13 -3156 19 -3207 5z m3021 -1053 l0 -800 -120 -62 c-66 -34 -124
-61 -129 -59 -6 1 -10 220 -11 567 -1 641 1 628 -80 712 -154 161 -472 160
-619 -4 -35 -38 -64 -90 -71 -129 -2 -8 -4 -361 -4 -785 l-1 -770 -258 -171
-257 -171 -5 956 c-6 1065 0 987 -76 1070 -159 177 -518 161 -649 -29 -41 -59
-53 -130 -55 -318 -2 -168 -3 -231 -14 -857 -8 -445 -17 -986 -20 -1154 -2
-111 -5 -135 -19 -142 -9 -5 -113 -75 -232 -154 -119 -80 -219 -145 -223 -145
-6 0 -9 3211 -3 3242 0 4 641 7 1424 5 l1422 -2 0 -800z"/>
</g>
</svg>
